<svg xmlns="http://www.w3.org/2000/svg" viewBox="0 0 256 256"><defs><style>.cls-1{fill:#2a52be;stroke-width:0}</style></defs><path id="_Слой_1" d="M0 0h256v256H0z" data-name="Слой 1" style="stroke-width:0;fill:none"/><g id="_Слой_4" data-name="Слой 4"><path d="M46 125.4C98 104.3 150 83.1 202 62c0 .2-.2.4-.2.7v-.4c-1.8 1.7-3.5 3.5-5.2 5.2l-67.7 67.7c-12.2-1.5-24.4-2.9-36.6-4.3-15.2-1.8-30.5-3.6-45.7-5.4h-.5Z" class="cls-1"/><path d="M196.6 67.5c1.8-1.7 3.5-3.5 5.2-5.2v.4c-12.5 30.7-25 61.4-37.4 92.2-8.6 21.1-17.1 42.1-25.7 63.2s0-.1 0-.2c0-1.4-.3-2.8-.4-4.2-2.7-22.6-5.3-45.2-8-67.9-.4-3.5-.9-7.1-1.2-10.6 22.6-22.5 45.1-45.1 67.7-67.7Z" style="stroke-width:0;fill:#314e97"/><path d="M46.1 125.4h.5c15.2 1.8 30.5 3.6 45.7 5.4 12.2 1.5 24.4 2.9 36.6 4.3.4 3.5.8 7.1 1.2 10.6 2.7 22.6 5.3 45.2 8 67.9.1 1.4.4 2.8.4 4.2-3.7-8.1-7.5-16.2-11.2-24.3-6-13-12-25.9-17.9-38.9-21.1-9.7-42.2-19.5-63.3-29.2" style="stroke-width:0;fill:#2b4280"/><path d="M128 0C57.3 0 0 57.3 0 128s57.3 128 128 128 128-57.3 128-128S198.7 0 128 0m0 246c-65.1 0-118-52.9-118-118S62.9 10 128 10s118 52.9 118 118-52.9 118-118 118" class="cls-1"/></g></svg>