<?xml version="1.0" encoding="UTF-8"?>
<svg xmlns="http://www.w3.org/2000/svg" viewBox="0 0 64 64">
  <defs>
    <style>.cls-1{fill:#2a52be;stroke-width:0}</style>
  </defs>
  <path id="_Слой_1" d="M0 0h64v64H0z" data-name="Слой 1" style="stroke-width:0;fill:none"></path>
  <g id="_Слой_4" data-name="Слой 4">
    <path d="M11.5 31.3c13-5.3 26-10.6 39-15.8v.2L49.2 17 32.3 33.9c-3.1-.4-6.1-.7-9.2-1.1-3.8-.5-7.6-.9-11.4-1.4h-.1Z" class="cls-1"></path>
    <path d="m49.1 16.9 1.3-1.3c-3.1 7.7-6.2 15.4-9.4 23-2.1 5.3-4.3 10.5-6.4 15.8 0-.4 0-.7-.1-1.1-.7-5.7-1.3-11.3-2-17-.1-.9-.2-1.8-.3-2.6l16.9-16.9Z" style="stroke-width:0;fill:#314e97"></path>
    <path d="M11.5 31.4h.1c3.8.5 7.6.9 11.4 1.4 3.1.4 6.1.7 9.2 1.1 0 .9.2 1.8.3 2.6.7 5.7 1.3 11.3 2 17 0 .4.1.7.1 1.1-.9-2-1.9-4.1-2.8-6.1-1.5-3.2-3-6.5-4.5-9.7-5.3-2.4-10.6-4.9-15.8-7.3Z" style="stroke-width:0;fill:#2b4280"></path>
    <path d="M32 0C14.3 0 0 14.3 0 32s14.3 32 32 32 32-14.3 32-32S49.7 0 32 0m0 61.5C15.7 61.5 2.5 48.3 2.5 32S15.7 2.5 32 2.5 61.5 15.7 61.5 32 48.3 61.5 32 61.5" class="cls-1"></path>
  </g>
</svg>
