<svg version="1.1" id="Слой_1" xmlns="http://www.w3.org/2000/svg" x="0" y="0" viewBox="0 0 512 512" xml:space="preserve"><style>.st0{fill:#4900b8}.st1{fill:none;stroke:#4900b8;stroke-width:17;stroke-miterlimit:10}</style><path class="st0" d="M294.9 164c0 16-9.9 24.2-17.8 30.7-7.7 6.4-13.8 11.4-13.8 23.2 0 4.8-3.9 8.7-8.7 8.7-4.8 0-8.7-3.9-8.7-8.7 0-20 11.6-29.6 20.1-36.6 7.6-6.2 11.5-9.9 11.5-17.4 0-7.3-1.9-16.4-11.2-18.8-8.7-2.2-21.7 2.6-28.3 14.6-2.3 4.2-7.6 5.7-11.8 3.4s-5.7-7.6-3.4-11.8c9.7-17.7 30.3-27.6 47.8-23.1 15.2 4 24.3 17.4 24.3 35.8zm-38.5 78.5c-4.8-.5-9 2.9-9.5 7.7-.2 1.7-.3 3.4-.3 5.2 0 4.8 3.9 8.7 8.7 8.7s8.7-3.9 8.7-8.7c0-1.2.1-2.3.2-3.4.4-4.7-3-9-7.8-9.5z"/><path class="st1" d="M256 296c-54.9 0-99.4-44.5-99.4-99.4 0-54.9 44.5-99.4 99.4-99.4 54.9 0 99.4 44.5 99.4 99.4 0 54.9-44.5 99.4-99.4 99.4z"/><path class="st0" d="M450.1 48.7H61.9c-18.4 0-33.4 15-33.4 33.4v267.5c0 18.4 15 33.4 33.4 33.4h149.5v62.5h-60c-4.9 0-8.9 4-8.9 8.9s4 8.9 8.9 8.9h209.1c4.9 0 8.9-4 8.9-8.9s-4-8.9-8.9-8.9h-60v-62.4H450c18.4 0 33.4-15 33.4-33.4V82.1c.1-18.4-14.9-33.4-33.3-33.4zM282.7 445.6h-53.3v-62.5h53.3v62.5zm182.9-95.9c0 8.5-7 15.5-15.5 15.5H61.9c-8.6 0-15.5-7-15.5-15.5V82.1c0-8.5 7-15.5 15.5-15.5H450c8.6 0 15.5 7 15.5 15.5v262.4h.1v5.2z"/><path class="st0" d="M44.2 326.6h428v17.9h-428z"/><circle class="st1" cx="255.6" cy="253.6" r="3.2"/></svg>